#!OML:ASF H:\LiuWeirdWalks\Patient Classification 1\Patient 1\Session 1\male.ASF
:FULLY-SPECIFIED
:DEGREES
871
root 3.13674 17.8881 36.2381 -0.86155 5.2814 -2.99254
lowerback 4.50584 -4.44049 -12.9449
upperback 0.00436514 -6.53065 5.50887
thorax -0.411033 -3.29511 13.549
lowerneck -16.3038 5.59825 12.168
upperneck 13.4523 6.01075 -7.51954
head 7.41207 2.84735 -3.76541
rclavicle -1.64619e-014 -5.96354e-015
rhumerus -34.8217 -16.1254 -71.108
rradius 20.3851
rwrist 0.550977
rhand -18.109 -4.0044
rfingers 7.12502
rthumb 8.1651 -33.8266
lclavicle -1.64619e-014 -5.96354e-015
lhumerus -35.0804 15.9873 64.7517
lradius 46.607
lwrist 19.0249
lhand -18.5774 0.552891
lfingers 7.12502
lthumb 7.71304 30.3922
rfemur -19.7087 -15.0321 14.649
rtibia 55.898
rfoot -14.2196 -13.1269
rtoes -4.92299
lfemur -12.2257 1.69032 -19.0317
ltibia 31.0796
lfoot -13.1881 2.16963
ltoes -5.81337
872
root 3.14308 17.8835 36.2623 -0.824539 5.3552 -2.84182
lowerback 4.47628 -4.47522 -13.2044
upperback 0.00778896 -6.58806 5.47721
thorax -0.346494 -3.32959 13.6625
lowerneck -16.314 5.56413 12.1389
upperneck 13.4849 5.96485 -7.48406
head 7.41765 2.8272 -3.75461
rclavicle 6.40459e-014 -1.59028e-015
rhumerus -34.7551 -16.1844 -70.9895
rradius 20.1657
rwrist 0.944134
rhand -18.0093 -4.00438
rfingers 7.12502
rthumb 8.26133 -33.8229
lclavicle 6.40459e-014 -1.59028e-015
lhumerus -34.8703 16.0594 64.7514
lradius 47.0973
lwrist 19.411
lhand -18.9019 0.437305
lfingers 7.12502
lthumb 7.39986 30.2879
rfemur -19.6551 -14.7298 14.6256
rtibia 54.7613
rfoot -14.5746 -12.8976
rtoes -5.24741
lfemur -12.1578 1.68786 -19.2078
ltibia 31.073
lfoot -13.3032 2.15997
ltoes -5.89247
873
root 3.1491 17.879 36.2864 -0.788157 5.42237 -2.69057
lowerback 4.42414 -4.52332 -13.4915
upperback 0.0188617 -6.66165 5.45893
thorax -0.250204 -3.37595 13.8042
lowerneck -16.2849 5.5497 12.1315
upperneck 13.4778 5.95046 -7.4852
head 7.40864 2.82038 -3.75601
rclavicle -2.58172e-014 -3.49861e-014
rhumerus -34.6376 -16.2552 -70.8608
rradius 19.9089
rwrist 1.43077
rhand -17.9025 -3.98677
rfingers 7.12502
rthumb 8.36447 -33.8012
lclavicle -2.58172e-014 -3.49861e-014
lhumerus -34.6924 16.1701 64.7697
lradius 47.5702
lwrist 19.8271
lhand -19.2343 0.292186
lfingers 7.12502
lthumb 7.07897 30.1538
rfemur -19.5594 -14.3473 14.5979
rtibia 53.5907
rfoot -14.9189 -12.6272
rtoes -5.68699
lfemur -12.0851 1.68479 -19.3825
ltibia 31.059
lfoot -13.4106 2.15183
ltoes -5.97182
874
root 3.15401 17.8731 36.3106 -0.870768 5.49938 -2.49238
lowerback 4.49729 -4.5503 -13.8264
upperback 0.0582828 -6.72421 5.41648
thorax -0.194372 -3.41503 13.9587
lowerneck -16.2484 5.53461 12.1248
upperneck 13.4723 5.93692 -7.4916
head 7.39919 2.81371 -3.7593
rclavicle -5.42061e-014 7.15625e-015
rhumerus -34.5176 -16.3178 -70.7417
rradius 19.6544
rwrist 1.9031
rhand -17.8079 -3.95264
rfingers 7.12502
rthumb 8.45574 -33.7634
lclavicle -5.42061e-014 7.15625e-015
lhumerus -34.5288 16.2763 64.7964
lradius 47.9924
lwrist 20.0623
lhand -19.4539 0.231514
lfingers 7.12502
lthumb 6.86697 30.1001
rfemur -19.2842 -13.8825 14.4773
rtibia 52.3988
rfoot -15.2778 -12.3137
rtoes -6.23512
lfemur -11.8672 1.6781 -19.6017
ltibia 31.0312
lfoot -13.5221 2.13499
ltoes -6.04088
875
root 3.1584 17.8679 36.3346 -0.902809 5.57225 -2.30856
lowerback 4.51739 -4.58371 -14.1372
upperback 0.0770071 -6.78815 5.37926
thorax -0.132046 -3.45427 14.1001
lowerneck -16.1906 5.51802 12.1135
upperneck 13.4629 5.92518 -7.49932
head 7.38487 2.80796 -3.76237
rclavicle 3.10725e-014 -7.67309e-014
rhumerus -34.3915 -16.3911 -70.6182
rradius 19.3857
rwrist 2.41088
rhand -17.7043 -3.91616
rfingers 7.12502
rthumb 8.5557 -33.7228
lclavicle 3.10725e-014 -7.67309e-014
lhumerus -34.3831 16.3523 64.8475
lradius 48.3737
lwrist 20.3183
lhand -19.672 0.232019
lfingers 7.12502
lthumb 6.65649 30.1074
rfemur -19.0421 -13.3318 14.3866
rtibia 51.2027
rfoot -15.6252 -11.9961
rtoes -6.86148
lfemur -11.7069 1.67959 -19.8039
ltibia 30.9972
lfoot -13.6179 2.10665
ltoes -6.1033
